<svg width="142" height="124" viewBox="0 0 142 124" fill="none" xmlns="http://www.w3.org/2000/svg">
<path d="M20.952 84.728V110H19.332V97.76H4.572V110H2.952V84.728H4.572V96.392H19.332V84.728H20.952ZM40.5374 110.288C38.7134 110.288 37.0694 109.88 35.6054 109.064C34.1414 108.248 32.9894 107.084 32.1494 105.572C31.3334 104.036 30.9254 102.248 30.9254 100.208C30.9254 98.192 31.3454 96.428 32.1854 94.916C33.0254 93.38 34.1774 92.216 35.6414 91.424C37.1294 90.608 38.7854 90.2 40.6094 90.2C42.4334 90.2 44.0774 90.608 45.5414 91.424C47.0054 92.216 48.1454 93.368 48.9614 94.88C49.8014 96.392 50.2214 98.168 50.2214 100.208C50.2214 102.248 49.8014 104.036 48.9614 105.572C48.1214 107.084 46.9574 108.248 45.4694 109.064C44.0054 109.88 42.3614 110.288 40.5374 110.288ZM40.5374 108.848C41.9534 108.848 43.2734 108.536 44.4974 107.912C45.7454 107.264 46.7414 106.292 47.4854 104.996C48.2294 103.7 48.6014 102.104 48.6014 100.208C48.6014 98.336 48.2294 96.752 47.4854 95.456C46.7414 94.16 45.7574 93.2 44.5334 92.576C43.3094 91.928 41.9894 91.604 40.5734 91.604C39.1574 91.604 37.8374 91.928 36.6134 92.576C35.4134 93.2 34.4414 94.16 33.6974 95.456C32.9534 96.752 32.5814 98.336 32.5814 100.208C32.5814 102.104 32.9414 103.7 33.6614 104.996C34.4054 106.292 35.3774 107.264 36.5774 107.912C37.8014 108.536 39.1214 108.848 40.5374 108.848ZM61.7965 94.484C62.2765 93.044 63.1285 91.952 64.3525 91.208C65.5765 90.44 67.1365 90.056 69.0325 90.056V91.748H68.4925C66.5725 91.748 64.9765 92.3 63.7045 93.404C62.4325 94.484 61.7965 96.26 61.7965 98.732V110H60.1765V90.452H61.7965V94.484ZM80.2145 91.856V104.78C80.2145 106.22 80.4785 107.216 81.0065 107.768C81.5345 108.296 82.4705 108.56 83.8145 108.56H86.0105V110H83.5625C81.8585 110 80.5985 109.604 79.7825 108.812C78.9905 107.996 78.5945 106.652 78.5945 104.78V91.856H75.6425V90.452H78.5945V85.484H80.2145V90.452H86.0105V91.856H80.2145ZM94.3149 100.208C94.3149 98.192 94.7109 96.428 95.5029 94.916C96.3189 93.404 97.4349 92.24 98.8509 91.424C100.291 90.608 101.923 90.2 103.747 90.2C105.811 90.2 107.563 90.704 109.003 91.712C110.443 92.72 111.451 94.004 112.027 95.564V90.452H113.647V110H112.027V104.852C111.451 106.436 110.431 107.744 108.967 108.776C107.527 109.784 105.787 110.288 103.747 110.288C101.923 110.288 100.291 109.88 98.8509 109.064C97.4349 108.224 96.3189 107.048 95.5029 105.536C94.7109 104 94.3149 102.224 94.3149 100.208ZM112.027 100.208C112.027 98.504 111.667 97.004 110.947 95.708C110.251 94.388 109.291 93.38 108.067 92.684C106.843 91.964 105.475 91.604 103.963 91.604C102.379 91.604 100.987 91.952 99.7869 92.648C98.5869 93.32 97.6509 94.304 96.9789 95.6C96.3069 96.896 95.9709 98.432 95.9709 100.208C95.9709 101.984 96.3069 103.52 96.9789 104.816C97.6509 106.112 98.5869 107.108 99.7869 107.804C101.011 108.5 102.403 108.848 103.963 108.848C105.475 108.848 106.843 108.5 108.067 107.804C109.315 107.084 110.287 106.076 110.983 104.78C111.679 103.46 112.027 101.936 112.027 100.208ZM126.206 83.36V110H124.586V83.36H126.206ZM138.804 90.452V110H137.184V90.452H138.804ZM141.108 84.404L134.052 88.868V87.536L141.108 82.82V84.404Z" fill="#148C00"/>
<ellipse cx="69.408" cy="50.8677" rx="26.408" ry="25.722" fill="#ED4343"/>
<path d="M92.0793 14.5776C92.5971 15.4563 92.759 16.5349 92.5558 17.7519C92.3527 18.9688 91.7884 20.3003 90.8953 21.6703C90.0021 23.0403 88.7975 24.4219 87.3504 25.7363C85.9032 27.0507 84.2417 28.2722 82.4609 29.3309C80.68 30.3897 78.8146 31.265 76.9711 31.9068C75.1277 32.5487 73.3423 32.9446 71.7169 33.0719C70.0915 33.1992 68.6579 33.0554 67.4981 32.6488C66.3382 32.2421 65.4748 31.5806 64.957 30.7019L78.5182 22.6397L92.0793 14.5776Z" fill="#148C00"/>
<path d="M92.0625 14.4829C91.5493 13.6015 90.6893 12.9352 89.5314 12.5221C88.3735 12.1091 86.9405 11.9573 85.3141 12.0755C83.6878 12.1936 81.8999 12.5795 80.0527 13.2109C78.2055 13.8423 76.3351 14.707 74.5483 15.7555C72.7614 16.8041 71.0931 18.016 69.6387 19.322C68.1842 20.6281 66.9721 22.0027 66.0715 23.3674C65.1708 24.7321 64.5994 26.0601 64.3897 27.2757C64.18 28.4913 64.3362 29.5706 64.8493 30.452L78.4559 22.4675L92.0625 14.4829Z" fill="#148C00"/>
</svg>
